<svg width="353" height="349" xmlns="http://www.w3.org/2000/svg" xmlns:xlink="http://www.w3.org/1999/xlink" xml:space="preserve" overflow="hidden"><g transform="translate(-3047 -1397)"><g><path d="M3050 1456.83C3050 1424.89 3075.89 1399 3107.83 1399L3339.17 1399C3371.11 1399 3397 1424.89 3397 1456.83L3397 1688.17C3397 1720.11 3371.11 1746 3339.17 1746L3107.83 1746C3075.89 1746 3050 1720.11 3050 1688.17Z" fill="#156082" fill-rule="evenodd" fill-opacity="1"/><g><g><g><path d="M3139.17 1609.58 3139.17 1585.5 3223.46 1585.5 3223.46 1609.58 3139.17 1609.58ZM3139.17 1561.42 3139.17 1537.33 3271.62 1537.33 3271.62 1561.42 3139.17 1561.42ZM3139.17 1513.25 3139.17 1489.17 3271.62 1489.17 3271.62 1513.25 3139.17 1513.25ZM3247.54 1681.83 3247.54 1644.81 3314.07 1578.58C3315.88 1576.77 3317.89 1575.47 3320.09 1574.66 3322.3 1573.86 3324.51 1573.46 3326.72 1573.46 3329.12 1573.46 3331.43 1573.91 3333.64 1574.81 3335.85 1575.72 3337.85 1577.07 3339.66 1578.88L3350.8 1590.02C3352.4 1591.82 3353.66 1593.83 3354.56 1596.04 3355.47 1598.24 3355.92 1600.45 3355.92 1602.66 3355.92 1604.87 3355.52 1607.12 3354.71 1609.43 3353.91 1611.74 3352.61 1613.8 3350.8 1615.6L3284.57 1681.83 3247.54 1681.83ZM3337.85 1602.66 3326.72 1591.52 3337.85 1602.66ZM3265.6 1663.77 3277.04 1663.77 3313.47 1627.04 3308.05 1621.32 3302.33 1615.91 3265.6 1652.33 3265.6 1663.77ZM3308.05 1621.32 3302.33 1615.91 3313.47 1627.04 3308.05 1621.32Z" fill="#E3E3E3" fill-rule="nonzero" fill-opacity="1"/></g></g></g><g><g><g><path d="M51.7915-14.125C45.9061-14.125 40.3935-15.2235 35.2536-17.4208 30.1136-19.618 25.6212-22.6391 21.776-26.4843 17.9308-30.3295 14.9097-34.8219 12.7125-39.9619 10.5152-45.1018 9.41665-50.6145 9.41665-56.4999 9.41665-62.3853 10.5152-67.8979 12.7125-73.0378 14.9097-78.1778 17.9308-82.6703 21.776-86.5154 25.6212-90.3606 30.1136-93.3817 35.2536-95.5789 40.3935-97.7762 45.9061-98.8748 51.7915-98.8748 53.4395-98.8748 55.0285-98.7767 56.5587-98.5805 58.0889-98.3843 59.6388-98.09 61.2082-97.6977L61.2082-88.0456C59.6388-88.5165 58.0889-88.8696 56.5587-89.105 55.0285-89.3404 53.4395-89.4581 51.7915-89.4581 42.5318-89.4581 34.7239-86.28 28.3676-79.9238 22.0114-73.5675 18.8333-65.7596 18.8333-56.4999 18.8333-47.2401 22.0114-39.4322 28.3676-33.076 34.7239-26.7197 42.5318-23.5416 51.7915-23.5416 61.0513-23.5416 68.8592-26.7197 75.2154-33.076 81.5717-39.4322 84.7498-47.2401 84.7498-56.4999 84.7498-57.363 84.7106-58.1478 84.6321-58.854 84.5536-59.5603 84.4359-60.345 84.279-61.2082L93.931-61.2082C94.0879-60.345 94.1664-59.5603 94.1664-58.854L94.1664-56.4999C94.1664-50.6145 93.0679-45.1018 90.8706-39.9619 88.6734-34.8219 85.6523-30.3295 81.8071-26.4843 77.9619-22.6391 73.4695-19.618 68.3295-17.4208 63.1896-15.2235 57.6769-14.125 51.7915-14.125ZM64.9748-36.7249 47.0832-54.6165 47.0832-80.0415 56.4999-80.0415 56.4999-58.3832 71.5665-43.3166 64.9748-36.7249ZM84.7498-70.6248 84.7498-84.7498 70.6248-84.7498 70.6248-94.1664 84.7498-94.1664 84.7498-108.291 94.1664-108.291 94.1664-94.1664 108.291-94.1664 108.291-84.7498 94.1664-84.7498 94.1664-70.6248 84.7498-70.6248Z" fill="#E97132" fill-rule="nonzero" fill-opacity="1" transform="matrix(1.00885 0 0 1 3262 1525)"/></g></g></g><g><g><g><path d="M3128 1718.33C3119.93 1718.33 3112.35 1716.8 3105.25 1713.74 3098.15 1710.68 3091.98 1706.52 3086.73 1701.27 3081.48 1696.02 3077.32 1689.85 3074.26 1682.75 3071.2 1675.65 3069.67 1668.07 3069.67 1660 3069.67 1651.93 3071.2 1644.35 3074.26 1637.25 3077.32 1630.15 3081.48 1623.98 3086.73 1618.73 3091.98 1613.48 3098.15 1609.32 3105.25 1606.26 3112.35 1603.2 3119.93 1601.67 3128 1601.67 3134.32 1601.67 3140.3 1602.59 3145.94 1604.44 3151.58 1606.28 3156.78 1608.86 3161.54 1612.17L3153.08 1620.77C3149.39 1618.44 3145.45 1616.61 3141.27 1615.3 3137.09 1613.99 3132.67 1613.33 3128 1613.33 3115.07 1613.33 3104.06 1617.88 3094.97 1626.97 3085.88 1636.06 3081.33 1647.07 3081.33 1660 3081.33 1672.93 3085.88 1683.94 3094.97 1693.03 3104.06 1702.12 3115.07 1706.67 3128 1706.67 3131.11 1706.67 3134.12 1706.38 3137.04 1705.79 3139.96 1705.21 3142.78 1704.38 3145.5 1703.31L3154.25 1712.21C3150.26 1714.15 3146.08 1715.66 3141.71 1716.73 3137.33 1717.8 3132.76 1718.33 3128 1718.33ZM3168.83 1706.67 3168.83 1689.17 3151.33 1689.17 3151.33 1677.5 3168.83 1677.5 3168.83 1660 3180.5 1660 3180.5 1677.5 3198 1677.5 3198 1689.17 3180.5 1689.17 3180.5 1706.67 3168.83 1706.67ZM3119.83 1686.83 3095.04 1662.04 3103.21 1653.88 3119.83 1670.5 3178.17 1612.02 3186.33 1620.19 3119.83 1686.83Z" fill="#4EA72E" fill-rule="nonzero" fill-opacity="1"/></g></g></g></g></g></svg>